<svg width="48" height="48" viewBox="0 0 48 48" fill="none" xmlns="http://www.w3.org/2000/svg">
<g opacity="0.32">
<path fill-rule="evenodd" clip-rule="evenodd" d="M12.6552 16.6948L13.8612 31.0388C13.9492 32.1428 14.8512 32.9708 15.9532 32.9708H15.9612H37.7832H37.7872C38.8292 32.9708 39.7192 32.1948 39.8672 31.1648L41.7672 18.0468C41.8112 17.7348 41.7332 17.4228 41.5432 17.1708C41.3552 16.9168 41.0792 16.7528 40.7672 16.7088C40.3492 16.7248 23.0032 16.7008 12.6552 16.6948ZM15.9492 35.9707C13.3152 35.9707 11.0852 33.9147 10.8712 31.2847L9.03919 9.49673L6.02519 8.97673C5.20719 8.83273 4.66119 8.05873 4.80119 7.24073C4.94519 6.42273 5.73519 5.89073 6.53519 6.01873L10.6952 6.73873C11.3652 6.85673 11.8752 7.41273 11.9332 8.09273L12.4032 13.6947C40.9552 13.7067 41.0472 13.7207 41.1852 13.7367C42.2992 13.8987 43.2792 14.4807 43.9472 15.3767C44.6152 16.2707 44.8952 17.3727 44.7352 18.4767L42.8372 31.5927C42.4792 34.0887 40.3112 35.9707 37.7912 35.9707H37.7812H15.9652H15.9492Z" fill="#FEFEFD"/>
<path fill-rule="evenodd" clip-rule="evenodd" d="M34.5753 24.0874H29.0313C28.2013 24.0874 27.5312 23.4154 27.5312 22.5874C27.5312 21.7594 28.2013 21.0874 29.0313 21.0874H34.5753C35.4033 21.0874 36.0753 21.7594 36.0753 22.5874C36.0753 23.4154 35.4033 24.0874 34.5753 24.0874Z" fill="#FEFEFD"/>
<path fill-rule="evenodd" clip-rule="evenodd" d="M15.088 41.4038C15.69 41.4038 16.176 41.8898 16.176 42.4918C16.176 43.0938 15.69 43.5818 15.088 43.5818C14.484 43.5818 13.998 43.0938 13.998 42.4918C13.998 41.8898 14.484 41.4038 15.088 41.4038Z" fill="#FEFEFD"/>
<mask id="mask0_10234_63274" style="mask-type:alpha" maskUnits="userSpaceOnUse" x="13" y="41" width="4" height="3">
<path fill-rule="evenodd" clip-rule="evenodd" d="M13.998 42.4908C13.998 43.0948 14.484 43.5828 15.09 43.5828C15.692 43.5828 16.178 43.0948 16.178 42.4908C16.178 41.8888 15.692 41.4028 15.09 41.4028C14.484 41.4028 13.998 41.8888 13.998 42.4908Z" fill="white"/>
</mask>
<g mask="url(#mask0_10234_63274)">
<path fill-rule="evenodd" clip-rule="evenodd" d="M4 53.5808H26.178V31.4028H4V53.5808Z" fill="#FEFEFD"/>
</g>
<path fill-rule="evenodd" clip-rule="evenodd" d="M15.086 42.0816C14.86 42.0816 14.676 42.2656 14.676 42.4916C14.676 42.9456 15.498 42.9456 15.498 42.4916C15.498 42.2656 15.312 42.0816 15.086 42.0816ZM15.086 45.0816C13.658 45.0816 12.498 43.9196 12.498 42.4916C12.498 41.0636 13.658 39.9036 15.086 39.9036C16.514 39.9036 17.676 41.0636 17.676 42.4916C17.676 43.9196 16.514 45.0816 15.086 45.0816Z" fill="#FEFEFD"/>
<path fill-rule="evenodd" clip-rule="evenodd" d="M37.6486 41.4038C38.2506 41.4038 38.7386 41.8898 38.7386 42.4918C38.7386 43.0938 38.2506 43.5818 37.6486 43.5818C37.0446 43.5818 36.5586 43.0938 36.5586 42.4918C36.5586 41.8898 37.0446 41.4038 37.6486 41.4038Z" fill="#FEFEFD"/>
<mask id="mask1_10234_63274" style="mask-type:alpha" maskUnits="userSpaceOnUse" x="36" y="41" width="3" height="3">
<path fill-rule="evenodd" clip-rule="evenodd" d="M36.5605 42.4908C36.5605 43.0948 37.0465 43.5828 37.6505 43.5828C38.2505 43.5828 38.7405 43.0948 38.7405 42.4908C38.7405 41.8888 38.2505 41.4028 37.6505 41.4028C37.0465 41.4028 36.5605 41.8888 36.5605 42.4908Z" fill="white"/>
</mask>
<g mask="url(#mask1_10234_63274)">
<path fill-rule="evenodd" clip-rule="evenodd" d="M26.5605 53.5808H48.7405V31.4028H26.5605V53.5808Z" fill="#FEFEFD"/>
</g>
<path fill-rule="evenodd" clip-rule="evenodd" d="M37.6465 42.0815C37.4225 42.0815 37.2385 42.2655 37.2385 42.4915C37.2405 42.9495 38.0605 42.9455 38.0585 42.4915C38.0585 42.2655 37.8725 42.0815 37.6465 42.0815ZM37.6466 45.0816C36.2186 45.0816 35.0586 43.9196 35.0586 42.4916C35.0586 41.0636 36.2186 39.9036 37.6466 39.9036C39.0766 39.9036 40.2386 41.0636 40.2386 42.4916C40.2386 43.9196 39.0766 45.0816 37.6466 45.0816Z" fill="#FEFEFD"/>
</g>
</svg>
