<svg width="30" height="30" viewBox="0 0 30 30" fill="none" xmlns="http://www.w3.org/2000/svg">
<mask id="mask0_10234_71263" style="mask-type:alpha" maskUnits="userSpaceOnUse" x="3" y="2" width="23" height="27">
<path fill-rule="evenodd" clip-rule="evenodd" d="M3.75 2.5H25.0485V28.5584H3.75V2.5Z" fill="white"/>
</mask>
<g mask="url(#mask0_10234_71263)">
<path fill-rule="evenodd" clip-rule="evenodd" d="M10.4275 4.375C7.24125 4.375 5.625 5.6025 5.625 8.02625V26.4313C5.625 26.5487 5.6925 26.6125 5.74875 26.645C5.805 26.68 5.89375 26.705 5.99625 26.6475L13.9737 22.1725C14.2587 22.0138 14.6075 22.0125 14.8937 22.1737L22.8025 26.6413C22.9062 26.7013 22.995 26.6737 23.0512 26.64C23.1075 26.6063 23.1737 26.5425 23.1737 26.425V8.255C23.1737 7.29625 23.1737 4.375 18.3762 4.375H10.4275ZM5.87375 28.5588C5.505 28.5588 5.13625 28.46 4.80125 28.2625C4.1425 27.8787 3.75 27.1925 3.75 26.4313V8.02625C3.75 4.51375 6.18375 2.5 10.4275 2.5H18.3762C22.6162 2.5 25.0487 4.59875 25.0487 8.255V26.425C25.0487 27.1875 24.6562 27.8738 23.9962 28.2575C23.3387 28.6425 22.5462 28.65 21.8812 28.275L14.4312 24.0662L6.9125 28.2838C6.5875 28.4663 6.23125 28.5588 5.87375 28.5588Z" fill="#FEFEFD"/>
</g>
<path fill-rule="evenodd" clip-rule="evenodd" d="M18.9248 12.7856H9.77734C9.25984 12.7856 8.83984 12.3656 8.83984 11.8481C8.83984 11.3306 9.25984 10.9106 9.77734 10.9106H18.9248C19.4423 10.9106 19.8623 11.3306 19.8623 11.8481C19.8623 12.3656 19.4423 12.7856 18.9248 12.7856Z" fill="#FEFEFD"/>
</svg>
