<svg width="30" height="30" viewBox="0 0 30 30" fill="none" xmlns="http://www.w3.org/2000/svg">
<mask id="mask0_10234_71251" style="mask-type:alpha" maskUnits="userSpaceOnUse" x="2" y="2" width="27" height="27">
<path fill-rule="evenodd" clip-rule="evenodd" d="M2.5 2.5H28.3707V28.3361H2.5V2.5Z" fill="white"/>
</mask>
<g mask="url(#mask0_10234_71251)">
<path fill-rule="evenodd" clip-rule="evenodd" d="M9.55375 4.375C5.92375 4.375 4.375 6.22 4.375 10.5413V20.29C4.375 24.27 6.5725 26.4613 10.5625 26.4613H20.29C24.27 26.4613 26.4613 24.27 26.4613 20.29V20.2863L26.4963 14.08C26.4963 9.83125 25.0387 8.175 21.295 8.175H17.7575C16.5712 8.17375 15.4388 7.6075 14.7262 6.66L13.585 5.1425C13.2262 4.66125 12.6525 4.37625 12.0525 4.375H9.55375ZM20.29 28.3363H10.5625C5.59 28.3363 2.5 25.2525 2.5 20.29V10.5413C2.5 5.205 4.87375 2.5 9.55375 2.5H12.0538C13.2425 2.50125 14.375 3.06875 15.085 4.0175L16.2238 5.5325C16.585 6.0125 17.1587 6.29875 17.7587 6.3H21.295C26.1225 6.3 28.3713 8.77375 28.3713 14.085L28.3363 20.2937C28.335 25.2537 25.2525 28.3363 20.29 28.3363Z" fill="#FEFEFD"/>
</g>
<path fill-rule="evenodd" clip-rule="evenodd" d="M20.8953 19.641H9.97656C9.45906 19.641 9.03906 19.221 9.03906 18.7035C9.03906 18.186 9.45906 17.766 9.97656 17.766H20.8953C21.4128 17.766 21.8328 18.186 21.8328 18.7035C21.8328 19.221 21.4128 19.641 20.8953 19.641Z" fill="#FEFEFD"/>
</svg>
