<svg width="30" height="30" viewBox="0 0 30 30" fill="none" xmlns="http://www.w3.org/2000/svg">
<path fill-rule="evenodd" clip-rule="evenodd" d="M15 4.375C9.14125 4.375 4.375 9.14125 4.375 15C4.375 20.8587 9.14125 25.625 15 25.625C20.8587 25.625 25.625 20.8587 25.625 15C25.625 9.14125 20.8587 4.375 15 4.375ZM15 27.5C8.1075 27.5 2.5 21.8925 2.5 15C2.5 8.1075 8.1075 2.5 15 2.5C21.8925 2.5 27.5 8.1075 27.5 15C27.5 21.8925 21.8925 27.5 15 27.5Z" fill="#FEFEFD"/>
<path fill-rule="evenodd" clip-rule="evenodd" d="M19.2887 19.6155C19.1249 19.6155 18.9599 19.573 18.8087 19.4843L14.0962 16.673C13.8137 16.503 13.6387 16.1968 13.6387 15.8668V9.80676C13.6387 9.28926 14.0587 8.86926 14.5762 8.86926C15.0949 8.86926 15.5137 9.28926 15.5137 9.80676V15.3343L19.7699 17.8718C20.2137 18.138 20.3599 18.713 20.0949 19.158C19.9187 19.4518 19.6074 19.6155 19.2887 19.6155Z" fill="#FEFEFD"/>
</svg>
