<svg width="30" height="30" viewBox="0 0 30 30" fill="none" xmlns="http://www.w3.org/2000/svg">
<path fill-rule="evenodd" clip-rule="evenodd" d="M22.3584 15.1831C21.8984 15.1831 21.4972 14.8444 21.4309 14.3756C21.3597 13.8619 21.7159 13.3881 22.2297 13.3169C23.5297 13.1344 24.5109 12.0069 24.5134 10.6919C24.5134 9.38813 23.5784 8.28563 22.2897 8.07438C21.7797 7.99063 21.4334 7.50813 21.5172 6.99688C21.6022 6.48563 22.0809 6.14313 22.5947 6.22438C24.7922 6.58563 26.3884 8.46563 26.3884 10.6944C26.3834 12.9381 24.7072 14.8631 22.4884 15.1744C22.4447 15.1806 22.4009 15.1831 22.3584 15.1831Z" fill="#FEFEFD"/>
<mask id="mask0_10234_71291" style="mask-type:alpha" maskUnits="userSpaceOnUse" x="23" y="17" width="6" height="7">
<path fill-rule="evenodd" clip-rule="evenodd" d="M23.7227 17.502H28.4651V23.164H23.7227V17.502Z" fill="white"/>
</mask>
<g mask="url(#mask0_10234_71291)">
<path fill-rule="evenodd" clip-rule="evenodd" d="M26.0767 23.164C25.6992 23.164 25.343 22.934 25.2005 22.5602C25.0155 22.0765 25.2592 21.534 25.743 21.3502C26.5905 21.0277 26.5905 20.6715 26.5905 20.5002C26.5905 19.9527 25.8942 19.5702 24.5217 19.3652C24.0105 19.2877 23.6567 18.8115 23.733 18.2977C23.8092 17.7852 24.2842 17.444 24.8005 17.5102C27.8292 17.964 28.4655 19.3865 28.4655 20.5002C28.4655 21.1802 28.198 22.4215 26.4105 23.1027C26.3005 23.144 26.188 23.164 26.0767 23.164Z" fill="#FEFEFD"/>
</g>
<path fill-rule="evenodd" clip-rule="evenodd" d="M14.8589 19.8925C11.8889 19.8925 8.34766 20.2575 8.34766 21.995C8.34766 23.7462 11.8889 24.1137 14.8589 24.1137C17.8289 24.1137 21.3689 23.75 21.3689 22.0162C21.3689 20.2612 17.8289 19.8925 14.8589 19.8925ZM14.8589 25.9887C12.7852 25.9887 6.47266 25.9887 6.47266 21.995C6.47266 18.0175 12.7852 18.0175 14.8589 18.0175C16.9327 18.0175 23.2439 18.0175 23.2439 22.0162C23.2439 25.9887 17.1527 25.9887 14.8589 25.9887Z" fill="#FEFEFD"/>
<path fill-rule="evenodd" clip-rule="evenodd" d="M14.8585 6.875C12.7435 6.875 11.0235 8.59625 11.0235 10.7113C11.0197 11.7363 11.4122 12.695 12.131 13.4188C12.8497 14.1425 13.8072 14.5438 14.8272 14.5475L14.8585 15.485V14.5475C16.9735 14.5475 18.6947 12.8275 18.6947 10.7113C18.6947 8.59625 16.9735 6.875 14.8585 6.875ZM14.8585 16.4225H14.8247C13.2997 16.4175 11.871 15.82 10.801 14.74C9.72849 13.6613 9.14224 12.2288 9.14849 10.7075C9.14849 7.5625 11.7097 5 14.8585 5C18.0085 5 20.5697 7.5625 20.5697 10.7113C20.5697 13.86 18.0085 16.4225 14.8585 16.4225Z" fill="#FEFEFD"/>
<path fill-rule="evenodd" clip-rule="evenodd" d="M7.35687 15.1831C7.31438 15.1831 7.27062 15.1806 7.22687 15.1744C5.00812 14.8631 3.33313 12.9381 3.32812 10.6969C3.32812 8.46562 4.92438 6.58562 7.12188 6.22437C7.64813 6.14187 8.11438 6.48812 8.19938 6.99687C8.28312 7.50812 7.93687 7.99062 7.42688 8.07437C6.13812 8.28562 5.20312 9.38812 5.20312 10.6944C5.20563 12.0069 6.18687 13.1356 7.48562 13.3169C7.99937 13.3881 8.35562 13.8619 8.28437 14.3756C8.21812 14.8444 7.81687 15.1831 7.35687 15.1831Z" fill="#FEFEFD"/>
<path fill-rule="evenodd" clip-rule="evenodd" d="M3.64 23.164C3.52875 23.164 3.41625 23.144 3.30625 23.1028C1.5175 22.4203 1.25 21.179 1.25 20.5003C1.25 19.3878 1.88625 17.964 4.91625 17.5103C5.4325 17.4453 5.905 17.7853 5.9825 18.2978C6.05875 18.8115 5.705 19.2878 5.19375 19.3653C3.82125 19.5703 3.125 19.9528 3.125 20.5003C3.125 20.6715 3.125 21.0265 3.97375 21.3503C4.4575 21.534 4.70125 22.0765 4.51625 22.5603C4.37375 22.934 4.0175 23.164 3.64 23.164Z" fill="#FEFEFD"/>
</svg>
