<svg width="30" height="30" viewBox="0 0 30 30" fill="none" xmlns="http://www.w3.org/2000/svg">
<path fill-rule="evenodd" clip-rule="evenodd" d="M14.9941 21.7834C14.4766 21.7834 14.0566 21.3634 14.0566 20.8459V17.6746C14.0566 17.1571 14.4766 16.7371 14.9941 16.7371C15.5116 16.7371 15.9316 17.1571 15.9316 17.6746V20.8459C15.9316 21.3634 15.5116 21.7834 14.9941 21.7834Z" fill="#FEFEFD"/>
<mask id="mask0_10234_71275" style="mask-type:alpha" maskUnits="userSpaceOnUse" x="2" y="5" width="26" height="14">
<path fill-rule="evenodd" clip-rule="evenodd" d="M2.5 5.72498H27.4872V18.6137H2.5V5.72498Z" fill="white"/>
</mask>
<g mask="url(#mask0_10234_71275)">
<path fill-rule="evenodd" clip-rule="evenodd" d="M4.375 14.2412C7.345 15.855 11.09 16.7387 14.9875 16.7387C18.8925 16.7387 22.6413 15.855 25.6125 14.2412V10.4887C25.6125 8.89498 24.3238 7.59998 22.7375 7.59998H7.2625C5.67 7.59998 4.375 8.88998 4.375 10.4762V14.2412ZM14.9875 18.6137C10.5563 18.6137 6.285 17.5412 2.96375 15.5962C2.67625 15.4287 2.5 15.1212 2.5 14.7875V10.4762C2.5 7.85623 4.63625 5.72498 7.2625 5.72498H22.7375C25.3575 5.72498 27.4875 7.86123 27.4875 10.4887V14.7875C27.4875 15.1212 27.31 15.4287 27.0238 15.5962C23.7025 17.5412 19.4275 18.6137 14.9875 18.6137Z" fill="#FEFEFD"/>
</g>
<mask id="mask1_10234_71275" style="mask-type:alpha" maskUnits="userSpaceOnUse" x="9" y="2" width="12" height="6">
<path fill-rule="evenodd" clip-rule="evenodd" d="M9.68164 2.50024H20.3066V7.59512H9.68164V2.50024Z" fill="white"/>
</mask>
<g mask="url(#mask1_10234_71275)">
<path fill-rule="evenodd" clip-rule="evenodd" d="M19.3691 7.59512C18.8516 7.59512 18.4316 7.17512 18.4316 6.65762V6.20012C18.4316 5.19387 17.6129 4.37512 16.6066 4.37512H13.3816C12.3754 4.37512 11.5566 5.19387 11.5566 6.20012V6.65762C11.5566 7.17512 11.1366 7.59512 10.6191 7.59512C10.1016 7.59512 9.68164 7.17512 9.68164 6.65762V6.20012C9.68164 4.16012 11.3416 2.50012 13.3816 2.50012H16.6066C18.6466 2.50012 20.3066 4.16012 20.3066 6.20012V6.65762C20.3066 7.17512 19.8866 7.59512 19.3691 7.59512Z" fill="#FEFEFD"/>
</g>
<path fill-rule="evenodd" clip-rule="evenodd" d="M22.2432 27.1752H7.74322C5.14947 27.1752 2.96572 25.149 2.76947 22.5615L2.53197 19.4252C2.49322 18.909 2.88072 18.4577 3.39697 18.419C3.91572 18.4002 4.36322 18.7665 4.40322 19.284L4.63947 22.419C4.76197 24.034 6.12447 25.3002 7.74322 25.3002H22.2432C23.862 25.3002 25.2257 24.034 25.347 22.419L25.5845 19.284C25.6245 18.7665 26.0832 18.399 26.5907 18.419C27.107 18.4577 27.4932 18.909 27.4545 19.4252L27.217 22.5615C27.0207 25.149 24.837 27.1752 22.2432 27.1752Z" fill="#FEFEFD"/>
</svg>
