<svg width="28" height="29" fill="none" xmlns="http://www.w3.org/2000/svg"><mask id="a" style="mask-type:alpha" maskUnits="userSpaceOnUse" x="0" y="0" width="27" height="27"><path fill-rule="evenodd" clip-rule="evenodd" d="M.416.667h25.97v25.97H.415V.666Z" fill="#fff"/></mask><g mask="url(#a)"><path fill-rule="evenodd" clip-rule="evenodd" d="M13.401 2.667c-6.057 0-10.985 4.926-10.985 10.984 0 6.057 4.928 10.985 10.985 10.985 6.056 0 10.984-4.928 10.984-10.985 0-6.058-4.928-10.984-10.984-10.984Zm0 23.97C6.241 26.636.416 20.81.416 13.65.416 6.49 6.241.667 13.401.667c7.16 0 12.984 5.824 12.984 12.984s-5.824 12.985-12.984 12.985Z" fill="#FEFEFD"/></g><mask id="b" style="mask-type:alpha" maskUnits="userSpaceOnUse" x="20" y="21" width="8" height="8"><path fill-rule="evenodd" clip-rule="evenodd" d="M20.736 21.61h6.7v6.686h-6.7v-6.687Z" fill="#fff"/></mask><g mask="url(#b)"><path fill-rule="evenodd" clip-rule="evenodd" d="M26.435 28.296a1 1 0 0 1-.706-.292l-4.699-4.686a1 1 0 0 1 1.413-1.417l4.699 4.687a.999.999 0 0 1-.707 1.708Z" fill="#FEFEFD"/></g></svg>