<svg width="24" height="25" viewBox="0 0 24 25" fill="none" xmlns="http://www.w3.org/2000/svg">
<mask id="mask0_7476_288415" style="mask-type:alpha" maskUnits="userSpaceOnUse" x="2" y="5" width="16" height="17">
<path fill-rule="evenodd" clip-rule="evenodd" d="M2 5.50049H17.5003V21.0018H2V5.50049Z" fill="white"/>
</mask>
<g mask="url(#mask0_7476_288415)">
<path fill-rule="evenodd" clip-rule="evenodd" d="M6.84711 7.00183C6.40811 7.00183 6.12511 7.00183 6.07611 7.00383C5.33811 7.03483 4.65711 7.34783 4.16611 7.88383C3.70811 8.38483 3.47211 9.02483 3.50311 9.68883C3.50311 12.5818 3.50411 16.9238 3.51111 17.1618C3.62511 18.5468 4.92311 19.6058 6.40911 19.4918C9.15911 19.4958 13.2331 19.5048 13.4241 19.4978C14.1591 19.4678 14.8411 19.1558 15.3321 18.6208C15.7911 18.1218 16.0271 17.4818 15.9981 16.8208C15.9971 16.8098 15.9971 16.7988 15.9971 16.7878C15.9981 13.9278 15.9981 9.58883 15.9911 9.35583C15.8781 7.96383 14.5741 6.89183 13.0801 7.00883C11.0141 7.00583 8.19511 7.00183 6.84711 7.00183ZM6.14611 21.0018C4.03211 21.0028 2.18811 19.3828 2.01411 17.2578C2.01111 17.2168 2.00111 17.0918 2.00411 9.72283C1.95611 8.69183 2.33011 7.66783 3.06011 6.87083C3.82211 6.03883 4.87311 5.55383 6.02011 5.50483C6.15911 5.49483 10.9671 5.50683 13.0261 5.51083C15.2761 5.35283 17.3071 7.02283 17.4881 9.26383C17.4961 9.37283 17.4991 11.8978 17.4971 16.7728C17.5391 17.8288 17.1631 18.8458 16.4371 19.6358C15.6741 20.4668 14.6221 20.9498 13.4761 20.9968C13.3361 21.0068 8.52611 20.9938 6.46411 20.9898C6.35811 20.9978 6.25211 21.0018 6.14611 21.0018Z" fill="#FEFEFD"/>
</g>
<path fill-rule="evenodd" clip-rule="evenodd" d="M20.8179 18.8493C20.3669 18.8493 19.9219 18.6943 19.5549 18.3933L16.2739 15.6973C15.9539 15.4343 15.9079 14.9613 16.1709 14.6413C16.4329 14.3223 16.9059 14.2743 17.2259 14.5383L20.5059 17.2343C20.7269 17.4143 20.9489 17.3403 21.0349 17.2983C21.1209 17.2583 21.3199 17.1333 21.3199 16.8493L21.3319 9.50031C21.3329 9.21631 21.1329 9.09131 21.0469 9.05031C20.9619 9.01031 20.7369 8.93531 20.5179 9.11531L17.2249 11.8103C16.9029 12.0733 16.4319 12.0263 16.1699 11.7043C15.9069 11.3843 15.9549 10.9123 16.2749 10.6503L19.5679 7.95431C20.1719 7.45931 20.9849 7.36231 21.6899 7.69531C22.3949 8.03031 22.8329 8.72231 22.8319 9.50231L22.8199 16.8513C22.8189 17.6313 22.3799 18.3233 21.6759 18.6553C21.3999 18.7863 21.1079 18.8493 20.8179 18.8493Z" fill="#FEFEFD"/>
</svg>
